<!DOCTYPE svg PUBLIC "-//W3C//DTD SVG 1.1//EN" "http://www.w3.org/Graphics/SVG/1.1/DTD/svg11.dtd">

<!-- Uploaded to: SVG Repo, www.svgrepo.com, Transformed by: SVG Repo Mixer Tools -->
<svg height="28px" width="28px" version="1.1" id="Layer_1" xmlns="http://www.w3.org/2000/svg" xmlns:xlink="http://www.w3.org/1999/xlink" viewBox="-47.39 -47.39 568.72 568.72" xml:space="preserve" fill="#000000" transform="rotate(-45)">

<g id="SVGRepo_bgCarrier" stroke-width="0"/>

<g id="SVGRepo_tracerCarrier" stroke-linecap="round" stroke-linejoin="round" stroke="#CCCCCC" stroke-width="94.787"> <circle style="fill:#000000;" cx="236.967" cy="236.967" r="236.967"/> <path style="fill:#ffff00;" d="M248.443,242.685c0-52.318,28.516-97.945,70.832-122.289c-15.757-6.601-33.055-10.26-51.21-10.26 c-73.204,0-132.549,59.341-132.549,132.549c0,73.201,59.341,132.549,132.549,132.549c18.155,0,35.453-3.663,51.21-10.267 C276.96,340.63,248.443,294.995,248.443,242.685z"/> </g>

<g id="SVGRepo_iconCarrier"> <circle style="fill:#000000;" cx="236.967" cy="236.967" r="236.967"/> <path style="fill:#ffff00;" d="M248.443,242.685c0-52.318,28.516-97.945,70.832-122.289c-15.757-6.601-33.055-10.26-51.21-10.26 c-73.204,0-132.549,59.341-132.549,132.549c0,73.201,59.341,132.549,132.549,132.549c18.155,0,35.453-3.663,51.21-10.267 C276.96,340.63,248.443,294.995,248.443,242.685z"/> </g>

</svg>